<?xml version="1.0" encoding="utf-8"?>
<!-- Generator: Adobe Illustrator 16.0.0, SVG Export Plug-In . SVG Version: 6.00 Build 0)  -->
<!DOCTYPE svg PUBLIC "-//W3C//DTD SVG 1.1//EN" "http://www.w3.org/Graphics/SVG/1.1/DTD/svg11.dtd">
<svg version="1.1" id="Layer_1" xmlns="http://www.w3.org/2000/svg" xmlns:xlink="http://www.w3.org/1999/xlink" x="0px" y="0px"
	 width="33.534px" height="85.124px" viewBox="0 0 33.534 85.124" enable-background="new 0 0 33.534 85.124" xml:space="preserve">
<path fill="#FFFFFF" d="M9.004,15.762c-2.454,0-4.544,0.905-6.32,2.656C0.912,20.241,0,22.37,0,24.733v21.875
	c0,0.819,0.28,1.569,0.912,2.161c0.586,0.593,1.314,0.859,2.143,0.859c0.949,0,1.68-0.268,2.266-0.859
	c0.508-0.592,0.773-1.342,0.773-2.161V27.051h1.59v54.162c0,1.041,0.456,1.998,1.32,2.746c0.814,0.82,1.766,1.165,2.853,1.165
	c1.186,0,2.143-0.345,2.91-1.165c0.819-0.748,1.19-1.705,1.19-2.746v-31.4h1.766v31.4c0,1.041,0.409,1.998,1.179,2.746
	c0.773,0.82,1.776,1.165,3.008,1.165c1.041,0,1.946-0.345,2.773-1.165c0.762-0.748,1.118-1.705,1.118-2.746V27.051h1.647v19.557
	c0,0.819,0.267,1.569,0.812,2.161c0.646,0.593,1.406,0.859,2.228,0.859c0.957,0,1.687-0.268,2.233-0.859
	c0.494-0.592,0.812-1.342,0.812-2.161V24.734c0-2.363-0.859-4.492-2.637-6.315c-1.731-1.751-3.814-2.656-6.354-2.656L9.004,15.762
	L9.004,15.762z"/>
<path fill="#FFFFFF" d="M16.816,13.959c1.908,0,3.588-0.625,4.948-1.94c1.354-1.341,2.044-3.008,2.044-5.02
	c0-1.914-0.689-3.555-2.044-4.909C20.404,0.697,18.725,0,16.816,0c-1.998,0-3.686,0.697-4.961,2.09
	c-1.354,1.354-1.992,2.995-1.992,4.909c0,2.012,0.639,3.678,1.992,5.02C13.132,13.334,14.818,13.959,16.816,13.959z"/>
</svg>
