<?xml version="1.0" encoding="utf-8"?>
<!-- Generator: Adobe Illustrator 15.1.0, SVG Export Plug-In . SVG Version: 6.00 Build 0)  -->
<!DOCTYPE svg PUBLIC "-//W3C//DTD SVG 1.1//EN" "http://www.w3.org/Graphics/SVG/1.1/DTD/svg11.dtd">
<svg version="1.1" id="Layer_1" xmlns="http://www.w3.org/2000/svg" xmlns:xlink="http://www.w3.org/1999/xlink" x="0px" y="0px"
	 width="54.195px" height="78.318px" viewBox="0 0 54.195 78.318" enable-background="new 0 0 54.195 78.318" xml:space="preserve">
<g>
	<path fill="#0065BD" d="M27.097,54.22c-7.241,0-14.049-2.818-19.169-7.937c-10.57-10.572-10.57-27.772,0-38.341
		C13.048,2.821,19.856,0,27.097,0s14.049,2.821,19.169,7.942c10.571,10.569,10.571,27.77,0,38.341
		C41.146,51.402,34.338,54.22,27.097,54.22z M27.097,4.016c-6.168,0-11.967,2.403-16.33,6.766c-9.003,9.004-9.003,23.655,0,32.661
		c4.362,4.36,10.161,6.761,16.33,6.761c6.168,0,11.967-2.401,16.33-6.761c9.005-9.006,9.005-23.657,0-32.661
		C39.064,6.419,33.265,4.016,27.097,4.016z"/>
</g>
<g>
	<path fill="#0065BD" d="M27.082,78.318c-1.109,0-2.009-0.899-2.009-2.008V52.213c0-1.109,0.899-2.008,2.009-2.008
		c1.109,0,2.008,0.899,2.008,2.008V76.31C29.09,77.419,28.19,78.318,27.082,78.318z"/>
</g>
<g>
	<path fill="#0065BD" d="M35.114,71.637H19.049c-1.109,0-2.008-0.899-2.008-2.009c0-1.108,0.899-2.007,2.008-2.007h16.065
		c1.109,0,2.008,0.899,2.008,2.007C37.122,70.738,36.223,71.637,35.114,71.637z"/>
</g>
</svg>
